<svg width="181" height="181" viewBox="0 0 181 181" fill="none" xmlns="http://www.w3.org/2000/svg">
<g filter="url(#filter0_d_1_1292)">
<rect x="4" width="173" height="173" rx="15" fill="#E9EDB4"/>
</g>
<path opacity="0.17" d="M135.145 22.655L135.091 22.5892H63.056L63.2192 22.7661H62.5595C60.5476 22.7661 58.6181 23.5653 57.1954 24.9879C55.7728 26.4106 54.9735 28.3401 54.9735 30.352V107.03H48.6254L48.571 107.096C47.0558 108.914 46.2261 111.206 46.2261 113.573C46.2261 115.94 47.0558 118.232 48.571 120.051L48.6254 120.116H120.744C122.934 120.116 125.034 119.246 126.583 117.698C128.131 116.149 129.001 114.049 129.001 111.859V35.6822H135.091L135.145 35.6187C136.662 33.7992 137.493 31.5055 137.493 29.1368C137.493 26.7681 136.662 24.4744 135.145 22.655V22.655Z" fill="#603813"/>
<path d="M60.6961 33.8004H132.731L132.785 33.7346C134.301 31.9162 135.13 29.6242 135.13 27.2573C135.13 24.8904 134.301 22.5984 132.785 20.78L132.731 20.7142H60.6961L61.0543 21.0974C62.6601 22.8281 63.5277 25.1167 63.4726 27.477C63.4176 29.8372 62.4443 32.0829 60.7596 33.7369L60.6961 33.8004Z" fill="#6B433C"/>
<path d="M118.386 118.239H52.6157V28.4748C52.6154 27.4788 52.8114 26.4925 53.1924 25.5722C53.5734 24.652 54.132 23.8159 54.8363 23.1116C55.5405 22.4073 56.3767 21.8487 57.2969 21.4677C58.2171 21.0867 59.2034 20.8908 60.1994 20.8911H124.544C124.544 20.8911 131.223 20.4943 131.087 20.8911C126.403 20.9817 126.643 33.9772 126.643 33.9772V109.982C126.643 112.172 125.773 114.272 124.224 115.82C122.676 117.368 120.576 118.238 118.386 118.239V118.239Z" fill="#A7AE3A"/>
<path d="M118.291 118.239H46.2563L46.2019 118.173C44.6867 116.355 43.8569 114.063 43.8569 111.696C43.8569 109.329 44.6867 107.037 46.2019 105.219L46.2563 105.153H118.291L117.933 105.536C114.591 109.134 114.024 115.271 118.291 118.232V118.239Z" fill="#6B433C"/>
<path d="M113.365 35.4077H68.6155V39.1735H113.365V35.4077Z" fill="#F7D77F"/>
<path d="M119.593 99.3944H99.5847V100.621H119.593V99.3944Z" fill="#004686"/>
<path d="M119.595 46.2474H62.3896V47.7778H119.595V46.2474Z" fill="#E6E6E6"/>
<path d="M119.595 53.7562H62.3896V55.2866H119.595V53.7562Z" fill="#E6E6E6"/>
<path d="M119.595 61.2673H62.3896V62.7977H119.595V61.2673Z" fill="#E6E6E6"/>
<path d="M119.595 68.776H62.3896V70.3063H119.595V68.776Z" fill="#E6E6E6"/>
<path d="M119.595 76.2849H62.3896V77.8153H119.595V76.2849Z" fill="#E6E6E6"/>
<path d="M119.595 91.3052H62.3896V92.8355H119.595V91.3052Z" fill="#E6E6E6"/>
<path d="M119.595 83.7965H62.3896V85.3269H119.595V83.7965Z" fill="#E6E6E6"/>
<path opacity="0.28" d="M124.94 37.5715L124.283 37.1657L124.106 37.0591L123.788 36.8619L124.815 35.1932C124.845 35.1425 124.854 35.0822 124.84 35.0251C124.826 34.968 124.79 34.9185 124.741 34.8872L119.091 31.4139C119.04 31.3842 118.98 31.3755 118.923 31.3894C118.866 31.4034 118.816 31.439 118.785 31.4887L117.758 33.1573L117.381 32.9306C117.341 32.9061 117.292 32.8986 117.246 32.9096C117.2 32.9206 117.159 32.9493 117.134 32.9896L116.694 33.706C116.682 33.7261 116.674 33.7484 116.67 33.7717C116.666 33.795 116.667 33.8188 116.672 33.8418C116.678 33.8648 116.688 33.8864 116.702 33.9055C116.716 33.9246 116.733 33.9408 116.753 33.9531L117.132 34.1798L108.279 48.5877C108.249 48.6382 108.24 48.6983 108.253 48.7554C108.267 48.8124 108.302 48.8621 108.351 48.8938L108.866 49.2089L89.5518 80.6342L89.1528 80.3871C89.1182 80.366 89.0799 80.3518 89.0399 80.3455C88.9999 80.3392 88.959 80.3408 88.9196 80.3503C88.8803 80.3598 88.8432 80.3769 88.8104 80.4007C88.7777 80.4245 88.7499 80.4546 88.7288 80.4891C88.6869 80.5583 88.6742 80.6413 88.6933 80.7199C88.7124 80.7985 88.7618 80.8663 88.8308 80.9085L89.2843 81.1806L89.1822 81.4073L88.6971 81.1353C88.6625 81.1141 88.6242 81.1 88.5842 81.0937C88.5442 81.0874 88.5033 81.089 88.4639 81.0985C88.4246 81.1079 88.3875 81.1251 88.3547 81.1489C88.322 81.1727 88.2942 81.2027 88.2731 81.2373V81.2373C88.2309 81.3066 88.2177 81.3897 88.2364 81.4686C88.2551 81.5475 88.3041 81.6159 88.3728 81.659L88.917 81.9923L87.1214 86.0052L85.1399 90.4307L84.0493 91.1108L83.0586 95.3187L83.6163 95.6452L87.0171 92.8588L87.1985 91.6754L90.4178 88.0275L93.3402 84.7197L93.8231 85.0167C93.8577 85.0378 93.896 85.0519 93.936 85.0582C93.976 85.0646 94.0169 85.0629 94.0563 85.0535C94.0956 85.044 94.1327 85.0269 94.1655 85.003C94.1982 84.9792 94.226 84.9492 94.2471 84.9146V84.9146C94.2683 84.8804 94.2825 84.8423 94.289 84.8026C94.2954 84.7629 94.294 84.7223 94.2847 84.6831C94.2754 84.6439 94.2585 84.607 94.235 84.5743C94.2114 84.5417 94.1816 84.5141 94.1473 84.4929L93.7551 84.2526L93.9229 84.0622L94.2766 84.2889C94.3461 84.3318 94.4297 84.3454 94.5092 84.3267C94.5887 84.308 94.6575 84.2585 94.7005 84.1891V84.1891C94.7427 84.1199 94.7559 84.0368 94.7372 83.9578C94.7186 83.8789 94.6695 83.8105 94.6008 83.7674L94.3061 83.5861L112.729 53.6095L113.62 52.1608L113.994 52.3875C114.045 52.4173 114.105 52.4265 114.162 52.4129C114.219 52.3994 114.269 52.3643 114.3 52.3149L123.142 37.9093L123.308 38.0113C123.328 38.0234 123.345 38.0394 123.359 38.0583C123.373 38.0772 123.383 38.0987 123.388 38.1214C123.394 38.1442 123.395 38.1679 123.391 38.191C123.387 38.2141 123.379 38.2363 123.367 38.2562L117.549 47.7239C117.537 47.7438 117.528 47.766 117.525 47.7891C117.521 47.8122 117.522 47.8359 117.527 47.8587C117.533 47.8815 117.543 47.9029 117.557 47.9218C117.571 47.9407 117.588 47.9567 117.608 47.9688L118.288 48.3882C118.308 48.4007 118.33 48.4091 118.353 48.413C118.376 48.4169 118.4 48.4162 118.422 48.4109C118.445 48.4057 118.467 48.3959 118.486 48.3823C118.505 48.3687 118.521 48.3514 118.533 48.3315L124.979 37.8413C124.997 37.8222 125.01 37.7994 125.018 37.7744C125.026 37.7495 125.028 37.7231 125.024 37.6972C125.02 37.6712 125.011 37.6465 124.996 37.6248C124.982 37.603 124.963 37.5848 124.94 37.5715V37.5715Z" fill="black"/>
<path d="M88.8445 87.184L85.5254 85.1957L87.7903 79.988L109.328 44.0579L114.121 46.9304L92.5967 82.8356L88.8445 87.184Z" fill="#153E49"/>
<path d="M116.589 30.334L106.271 47.5474C106.208 47.6526 106.242 47.7891 106.347 47.8521L112.037 51.2628C112.142 51.3259 112.279 51.2917 112.342 51.1865L122.66 33.9732C122.723 33.8679 122.689 33.7315 122.584 33.6684L116.894 30.2577C116.789 30.1946 116.652 30.2288 116.589 30.334Z" fill="#113542"/>
<path d="M122.159 35.9527L121.982 35.8461L115.21 31.7879C115.19 31.7756 115.167 31.7675 115.144 31.7639C115.121 31.7603 115.097 31.7614 115.074 31.7671C115.052 31.7728 115.03 31.783 115.011 31.7971C114.993 31.8112 114.977 31.8288 114.965 31.8491L114.534 32.5701C114.522 32.5901 114.514 32.6124 114.51 32.6356C114.507 32.6588 114.508 32.6825 114.513 32.7053C114.519 32.7281 114.529 32.7496 114.543 32.7684C114.557 32.7872 114.575 32.803 114.595 32.8149L121.211 36.7825C121.252 36.8066 121.281 36.8459 121.293 36.8918C121.305 36.9377 121.298 36.9864 121.274 37.0273L115.561 46.5495C115.549 46.5695 115.541 46.5918 115.537 46.615C115.534 46.6382 115.535 46.6619 115.54 46.6847C115.546 46.7075 115.556 46.729 115.57 46.7478C115.584 46.7666 115.602 46.7824 115.622 46.7943L116.302 47.2069C116.343 47.2311 116.392 47.2383 116.438 47.2268C116.483 47.2153 116.523 47.1862 116.547 47.1457L122.877 36.5852C122.901 36.5446 122.909 36.4961 122.897 36.4502C122.886 36.4043 122.857 36.3648 122.816 36.3404L122.159 35.9527Z" fill="#1A1A1A"/>
<path d="M85.6545 90.8726L83.5959 89.637L87.7902 79.9879L92.583 82.8604L85.6545 90.8726Z" fill="#5D7A7F"/>
<path d="M85.6547 90.8725L83.5961 89.6368L82.5147 90.3351L81.5715 94.5521L82.1202 94.8808L85.4869 92.0559L85.6547 90.8725Z" fill="#DAE7E8"/>
<path d="M87.0749 79.6634L87.0726 79.6673C86.985 79.8134 87.0325 80.0027 87.1785 80.0903L92.668 83.3809C92.8141 83.4685 93.0035 83.421 93.091 83.275L93.0934 83.2711C93.1809 83.125 93.1335 82.9356 92.9874 82.8481L87.4979 79.5575C87.3519 79.4699 87.1625 79.5174 87.0749 79.6634Z" fill="#688689"/>
<path d="M86.6279 80.4095L86.6256 80.4134C86.538 80.5595 86.5854 80.7488 86.7315 80.8364L92.221 84.127C92.3671 84.2146 92.5565 84.1671 92.644 84.0211L92.6463 84.0172C92.7339 83.8711 92.6865 83.6817 92.5404 83.5942L87.0509 80.3036C86.9048 80.216 86.7155 80.2634 86.6279 80.4095Z" fill="#688689"/>
<path d="M83.814 92.3846C83.7683 92.4622 83.7007 92.5245 83.6195 92.5634C83.5384 92.6024 83.4475 92.6164 83.3584 92.6035C83.2693 92.5907 83.186 92.5516 83.1192 92.4912C83.0524 92.4309 83.0051 92.352 82.9833 92.2647C82.9614 92.1774 82.9661 92.0855 82.9966 92.0009C83.0272 91.9162 83.0822 91.8425 83.1548 91.7892C83.2274 91.736 83.3141 91.7055 83.4041 91.7017C83.494 91.6979 83.583 91.721 83.6598 91.768C83.7612 91.83 83.8342 91.9294 83.8631 92.0448C83.8919 92.1601 83.8743 92.2822 83.814 92.3846Z" fill="#153E49"/>
<path d="M83.2202 92.2781L81.783 94.6758L81.9696 94.7877L83.4069 92.39L83.2202 92.2781Z" fill="#153E49"/>
<path opacity="0.28" d="M106.866 48.1636L111.659 51.0361L109.009 55.4571L106.866 48.1636Z" fill="black"/>
<path d="M74.9296 35.4077H68.6155V39.1735H74.9296V35.4077Z" fill="#8CAD81"/>
<path d="M72.892 148.444H67.654L66.754 151H64.612L69.094 138.472H71.47L75.952 151H73.792L72.892 148.444ZM72.316 146.77L70.282 140.956L68.23 146.77H72.316ZM79.9528 142.54C80.3008 142.084 80.7748 141.7 81.3748 141.388C81.9748 141.076 82.6528 140.92 83.4088 140.92C84.2728 140.92 85.0588 141.136 85.7668 141.568C86.4868 141.988 87.0508 142.582 87.4588 143.35C87.8668 144.118 88.0708 145 88.0708 145.996C88.0708 146.992 87.8668 147.886 87.4588 148.678C87.0508 149.458 86.4868 150.07 85.7668 150.514C85.0588 150.946 84.2728 151.162 83.4088 151.162C82.6528 151.162 81.9808 151.012 81.3928 150.712C80.8048 150.4 80.3248 150.016 79.9528 149.56V155.716H77.9008V141.082H79.9528V142.54ZM85.9828 145.996C85.9828 145.312 85.8388 144.724 85.5508 144.232C85.2748 143.728 84.9028 143.35 84.4348 143.098C83.9788 142.834 83.4868 142.702 82.9588 142.702C82.4428 142.702 81.9508 142.834 81.4828 143.098C81.0268 143.362 80.6548 143.746 80.3668 144.25C80.0908 144.754 79.9528 145.348 79.9528 146.032C79.9528 146.716 80.0908 147.316 80.3668 147.832C80.6548 148.336 81.0268 148.72 81.4828 148.984C81.9508 149.248 82.4428 149.38 82.9588 149.38C83.4868 149.38 83.9788 149.248 84.4348 148.984C84.9028 148.708 85.2748 148.312 85.5508 147.796C85.8388 147.28 85.9828 146.68 85.9828 145.996ZM92.152 142.54C92.5 142.084 92.974 141.7 93.574 141.388C94.174 141.076 94.852 140.92 95.608 140.92C96.472 140.92 97.258 141.136 97.966 141.568C98.686 141.988 99.25 142.582 99.658 143.35C100.066 144.118 100.27 145 100.27 145.996C100.27 146.992 100.066 147.886 99.658 148.678C99.25 149.458 98.686 150.07 97.966 150.514C97.258 150.946 96.472 151.162 95.608 151.162C94.852 151.162 94.18 151.012 93.592 150.712C93.004 150.4 92.524 150.016 92.152 149.56V155.716H90.1V141.082H92.152V142.54ZM98.182 145.996C98.182 145.312 98.038 144.724 97.75 144.232C97.474 143.728 97.102 143.35 96.634 143.098C96.178 142.834 95.686 142.702 95.158 142.702C94.642 142.702 94.15 142.834 93.682 143.098C93.226 143.362 92.854 143.746 92.566 144.25C92.29 144.754 92.152 145.348 92.152 146.032C92.152 146.716 92.29 147.316 92.566 147.832C92.854 148.336 93.226 148.72 93.682 148.984C94.15 149.248 94.642 149.38 95.158 149.38C95.686 149.38 96.178 149.248 96.634 148.984C97.102 148.708 97.474 148.312 97.75 147.796C98.038 147.28 98.182 146.68 98.182 145.996ZM104.351 137.68V151H102.299V137.68H104.351ZM115.973 141.082L109.889 155.662H107.765L109.781 150.838L105.875 141.082H108.161L110.951 148.642L113.849 141.082H115.973Z" fill="#6B433C"/>
<defs>
<filter id="filter0_d_1_1292" x="0" y="0" width="181" height="181" filterUnits="userSpaceOnUse" color-interpolation-filters="sRGB">
<feFlood flood-opacity="0" result="BackgroundImageFix"/>
<feColorMatrix in="SourceAlpha" type="matrix" values="0 0 0 0 0 0 0 0 0 0 0 0 0 0 0 0 0 0 127 0" result="hardAlpha"/>
<feOffset dy="4"/>
<feGaussianBlur stdDeviation="2"/>
<feComposite in2="hardAlpha" operator="out"/>
<feColorMatrix type="matrix" values="0 0 0 0 0 0 0 0 0 0 0 0 0 0 0 0 0 0 0.25 0"/>
<feBlend mode="normal" in2="BackgroundImageFix" result="effect1_dropShadow_1_1292"/>
<feBlend mode="normal" in="SourceGraphic" in2="effect1_dropShadow_1_1292" result="shape"/>
</filter>
</defs>
</svg>
